<svg width="25" height="24" viewBox="0 0 25 24" fill="none" xmlns="http://www.w3.org/2000/svg">
<path d="M2.0293 2H3.33546C3.58148 2 3.70449 2 3.80348 2.04524C3.89072 2.08511 3.96464 2.14922 4.01645 2.22995C4.07523 2.32154 4.09263 2.44332 4.12742 2.68686L4.60073 6M4.60073 6L5.65262 13.7314C5.7861 14.7125 5.85285 15.2031 6.0874 15.5723C6.29408 15.8977 6.59038 16.1564 6.94065 16.3174C7.33816 16.5 7.83324 16.5 8.8234 16.5H17.3813C18.3238 16.5 18.7951 16.5 19.1803 16.3304C19.5198 16.1809 19.8111 15.9398 20.0216 15.6342C20.2602 15.2876 20.3484 14.8247 20.5248 13.8988L21.8484 6.94969C21.9105 6.62381 21.9415 6.46087 21.8965 6.3335C21.8571 6.22177 21.7792 6.12768 21.6768 6.06802C21.5601 6 21.3943 6 21.0625 6H4.60073ZM10.0293 21C10.0293 21.5523 9.58158 22 9.0293 22C8.47701 22 8.0293 21.5523 8.0293 21C8.0293 20.4477 8.47701 20 9.0293 20C9.58158 20 10.0293 20.4477 10.0293 21ZM18.0293 21C18.0293 21.5523 17.5816 22 17.0293 22C16.477 22 16.0293 21.5523 16.0293 21C16.0293 20.4477 16.477 20 17.0293 20C17.5816 20 18.0293 20.4477 18.0293 21Z" stroke="#455463" stroke-linecap="round" stroke-linejoin="round"/>
</svg>
