<svg width="25" height="24" viewBox="0 0 25 24" fill="none" xmlns="http://www.w3.org/2000/svg">
<path d="M15.5748 9.92543C15.9488 9.26103 16.2606 8.66151 16.4529 8.20521C17.3866 5.98947 16.4633 3.44077 14.2062 2.40112C11.9492 1.36148 9.6827 2.4395 8.68801 4.52093C6.78586 3.2157 4.24848 3.40739 2.84918 5.44424C1.44989 7.48108 1.88905 10.142 3.80559 11.594C4.6754 12.253 6.39566 13.2242 8.01525 14.0884M16.3265 11.7499C15.9044 9.482 13.9747 7.82334 11.5449 8.27415C9.11522 8.72497 7.54417 10.9171 7.87264 13.299C8.13655 15.2127 9.59322 19.7027 10.1557 21.394C10.2325 21.6248 10.2708 21.7402 10.3468 21.8206C10.413 21.8907 10.501 21.9416 10.5948 21.9638C10.7025 21.9894 10.8216 21.9649 11.0599 21.916C12.8058 21.5575 17.4226 20.574 19.2119 19.8457C21.4389 18.9392 22.5882 16.4841 21.7274 14.153C20.8665 11.8219 18.5016 10.9815 16.3265 11.7499Z" stroke="#455463" stroke-linecap="round" stroke-linejoin="round"/>
</svg>
