<?xml version="1.0" encoding="UTF-8"?>
<!DOCTYPE svg PUBLIC "-//W3C//DTD SVG 1.1//EN" "http://www.w3.org/Graphics/SVG/1.1/DTD/svg11.dtd">
<!-- Creator: CorelDRAW 2018 (64 Bit Versão de avaliação) -->
<svg xmlns="http://www.w3.org/2000/svg" xml:space="preserve" width="3238px" height="1172px" version="1.1" style="shape-rendering:geometricPrecision; text-rendering:geometricPrecision; image-rendering:optimizeQuality; fill-rule:evenodd; clip-rule:evenodd"
viewBox="0 0 3394.67 1229.02"
 xmlns:xlink="http://www.w3.org/1999/xlink">
 <defs>
  <style type="text/css">
   <![CDATA[
    .fil1 {fill:#02719E}
    .fil0 {fill:#976E38}
   ]]>
  </style>
 </defs>
 <g id="Camada_x0020_1">
  <metadata id="CorelCorpID_0Corel-Layer"/>
  <path class="fil0" d="M1717.25 665.52c0,67.25 -13.43,170.36 69.9,170.36 94.66,0 66.6,-103.12 65.37,-183.31 -1.91,-123.49 -8.59,-205.29 -8.59,-323.41 0,-71.04 -2.2,-174.73 83,-174.73 59.16,0 125.67,20.3 151.17,-23.68 29.57,-51.03 -7.22,-98.63 -68.17,-98.63l-463.04 0c-101.64,0 -90.47,102.52 -37.71,125.33 45.86,19.83 172.8,-34.51 194.04,37.23 26.19,88.49 14.03,358.05 14.03,470.84z"/>
  <path class="fil0" d="M2590.91 661.15c0,-41 -10.6,-161.63 48.05,-161.63 76.11,0 91.73,72.46 91.73,135.42 0,103.7 -139.78,190.31 -139.78,26.21zm-122.31 -148.52l0 331.99c0,92.73 -19.11,288.3 69.89,288.3 83.5,0 56.79,-101.37 56.79,-196.57 0,-109.25 85.84,-70.99 158.22,-116.98 163.85,-104.11 115.44,-442.16 -123.28,-442.16 -93.02,0 -161.62,29.36 -161.62,135.42z"/>
  <path class="fil1" d="M79.15 835.88c64.74,0 61.16,-51.74 61.16,-83 0,-137.83 -19.84,-165.99 135.41,-165.99 56.52,0 56.79,-17.05 56.79,-65.53 0,-72.49 -32.93,-56.78 -126.68,-56.78 -77.76,0 -78.63,-96.33 -78.63,-148.52 0,-215.82 270.83,-5.91 270.83,-161.63 0,-94.17 -21.94,-91.73 -139.78,-91.73 -249.86,0 -262.2,-5.46 -257.57,292.51 1.46,94.37 4.33,178.81 4.2,275.37 -0.11,85.2 -13.41,205.3 74.27,205.3z"/>
  <path class="fil1" d="M502.87 700.46c-38.65,0 -39.31,-10.8 -39.31,-61.15 0,-125.67 139.78,-174.05 139.78,-100.47 0,64.81 -47.47,161.62 -100.47,161.62zm-52.42 122.32c114.05,0 116.06,-61.74 161.63,-65.53 2.42,108.58 122.31,85.31 122.31,52.42l0 -205.31c0,-150.93 12.15,-227.15 -139.78,-227.15 -281.85,0 -332.01,445.57 -144.16,445.57z"/>
  <path class="fil0" d="M2739.43 23.38c0,88.95 131.48,126.43 155.75,171.87 31.97,59.88 -37.47,267.18 40.82,273.69l94.69 -182.06 87.37 65.95c1.41,44.85 -8.83,101.92 18.88,120.48 28.1,-7.5 25.87,-33.94 36,-60.1 13.84,-35.76 51.37,-6.62 51.37,-49.1 0,-33.19 -11.05,-19.11 25.19,-40.27 16.54,-9.66 34.18,-16.91 35.97,-38.36 -25.92,-38.7 -73.93,6.76 -114.64,6.15 -15.52,-0.24 -80.7,-52.41 -90.67,-67.31 19.87,-27.12 108.74,-83.09 139.32,-114.52 31.1,-31.96 -3.87,-53.4 -39.91,-44.45 -36.72,9.11 -65.61,16.33 -101.99,25.35 -118.62,29.4 -97.36,45.47 -179.01,-16.78 -8.83,-6.73 -159.14,-122.26 -159.14,-50.54z"/>
  <path class="fil1" d="M1284.79 171.9l0 436.83c0,89.67 -15.91,227.15 78.63,227.15 28.2,0 52.42,-16.35 52.42,-43.68l0 -646.51c0.32,-73.69 -131.05,-106.8 -131.05,26.21z"/>
  <path class="fil1" d="M769.34 595.63l0 43.68c0,110.29 86.21,196.57 196.57,196.57 45.64,0 109.21,-6.94 109.21,-65.52 0,-64.78 -39.69,-48.06 -91.74,-48.06 -114.12,0 -116.98,-195.35 -7.19,-221.61 43.96,-10.51 112.03,14.54 112.03,-57.95 0,-112.13 -318.88,-93.02 -318.88,152.89z"/>
  <path class="fil0" d="M1900.72 626.2c0,74.96 -16.58,209.68 56.79,209.68 100.74,0 74.26,-60.11 74.26,-200.94 0,-222.96 153.67,-78.63 179.1,-78.63 36.74,0 65.52,-32.76 65.52,-78.63 0,-47.99 -93.74,-100.47 -148.52,-100.47l-48.05 0c-125.45,0 -179.1,119.5 -179.1,248.99z"/>
  <path class="fil0" d="M2359.39 835.88l17.47 0c77.05,0 56.79,-168.76 56.79,-244.62 0,-67.24 12.92,-209.68 -52.42,-209.68l-21.84 0c-81.49,0 -56.3,150.57 -56.7,222.69 -0.44,79.24 -23.42,231.61 56.7,231.61z"/>
  <path class="fil1" d="M1118.8 447.1l0 227.15c0,109.25 -9.69,161.63 74.26,161.63 78.25,0 56.79,-171.42 56.79,-248.99 0,-67.54 12.91,-205.31 -52.42,-205.31 -37.81,0 -78.63,9.26 -78.63,65.52z"/>
  <path class="fil1" d="M1463.89 455.84l0 170.36c0,68.44 -13.82,209.68 52.42,209.68 93.32,0 78.63,-60.26 78.63,-183.47l0 -135.41c0,-107.8 -2.33,-135.42 -74.26,-135.42 -36.39,0 -56.79,35.04 -56.79,74.26z"/>
  <path class="fil1" d="M1459.53 263.64c0,101.75 139.78,98.56 139.78,-4.37 0,-86.54 -139.78,-90.51 -139.78,4.37z"/>
  <path class="fil0" d="M2298.23 263.64c0,108.61 139.79,89.19 139.79,0 0,-88.34 -139.79,-98.98 -139.79,0z"/>
  <path class="fil1" d="M1114.43 263.64c0,108.61 139.79,89.19 139.79,0 0,-87.65 -139.79,-99.58 -139.79,0z"/>
  <path class="fil0" d="M3084.52 888.3c0,54.57 96.06,34.97 126.69,30.6 -8.3,17.27 -2.81,37.7 -4.54,60.97 -3.35,45.05 -18.91,25.68 -8.57,70.06 27.42,6.38 46.48,12.46 52.27,-70.06 2.39,-34.03 14.96,-68.81 -26.06,-69.73 10.93,-22.77 0.95,-24.85 -8.74,-39.31 -19.2,1.59 -40.94,13.1 -61.15,13.1 -14.86,0 -27.05,-7.46 -38.25,-10.31 -13.55,-3.44 -31.65,4.67 -31.65,14.68z"/>
  <path class="fil0" d="M3368.46 748.51c0,-21.52 -14.29,-21.84 -26.21,-21.84 -18.25,0 -30.62,43.04 -41.2,59.27 -12.14,18.64 -46.29,42.91 -25.23,63.96 36.46,36.47 92.64,-97.11 92.64,-101.39z"/>
  <path class="fil0" d="M3394.67 588.23c-0.98,-27.93 -4.79,-56.08 -17.44,-63.11 -9.77,-5.42 -21.83,-3.56 -29.24,6.41 -7.06,9.49 -3.22,19.87 -0.15,36.43 4.4,23.75 -0.89,63.02 3.3,84.37 5.55,28.34 43.53,20.49 43.53,-13.02l0 -51.08z"/>
  <path class="fil0" d="M3023.37 787.83c0,28.23 6.98,37.88 26.21,48.05 44.99,-23.81 4.96,-37.59 26.24,-78.51 9.26,-17.78 26.18,-17.4 26.18,-39.43 0,-37.57 -78.63,-16.6 -78.63,69.89z"/>
  <path class="fil0" d="M3154.42 731.04c4.54,19.52 23.07,35.71 33.64,58.1 12.84,27.21 6.14,59.85 36.25,59.85 38.82,0 8.79,-70.58 0.14,-87.51 -15.85,-31.02 -37.89,-67.42 -70.03,-30.44z"/>
  <path class="fil0" d="M2848.64 1194.08c0,26.44 26.61,33.39 58.21,34.94l55.36 0c18.52,0 30.58,-8.27 30.58,-26.21 0,-29.58 -40.03,-16.45 -70.03,-17.3 -24.03,-0.68 -74.12,-21.3 -74.12,8.57z"/>
  <path class="fil0" d="M3049.58 1172.24c0,65.68 126.68,-36.21 126.68,-52.42 0,-60.58 -62.78,2.69 -75.93,11.44 -14.87,9.9 -50.75,23.66 -50.75,40.98z"/>
  <path class="fil0" d="M3276.73 403.42c0,1.29 31.42,65.52 56.79,65.52 30.64,0 15.63,-37.46 -1.17,-59.98 -12.1,-16.21 -15.17,-27.38 -33.78,-27.38 -10.19,0 -21.84,11.66 -21.84,21.84z"/>
  <path class="fil0" d="M2717.59 1111.08c0,37.38 78.63,92.73 78.63,48.05 0,-28.9 -50.59,-65.52 -56.79,-65.52 -11.46,0 -21.84,3.25 -21.84,17.47z"/>
 </g>
</svg>
