<?xml version="1.0" standalone="no"?>
<svg xmlns:xlink="http://www.w3.org/1999/xlink" id="wave" style="transform:rotate(0deg); transition: 0.3s" viewBox="0 0 1440 330" version="1.1" xmlns="http://www.w3.org/2000/svg"><defs><linearGradient id="sw-gradient-0" x1="0" x2="0" y1="1" y2="0"><stop stop-color="rgba(62, 101.348, 243, 1)" offset="0%"/><stop stop-color="rgba(11, 254.174, 255, 1)" offset="100%"/></linearGradient></defs><path style="transform:translate(0, 0px); opacity:1" fill="url(#sw-gradient-0)" d="M0,198L80,170.5C160,143,320,88,480,104.5C640,121,800,209,960,225.5C1120,242,1280,187,1440,154C1600,121,1760,110,1920,115.5C2080,121,2240,143,2400,154C2560,165,2720,165,2880,176C3040,187,3200,209,3360,214.5C3520,220,3680,209,3840,170.5C4000,132,4160,66,4320,66C4480,66,4640,132,4800,176C4960,220,5120,242,5280,225.5C5440,209,5600,154,5760,126.5C5920,99,6080,99,6240,110C6400,121,6560,143,6720,143C6880,143,7040,121,7200,93.5C7360,66,7520,33,7680,27.5C7840,22,8000,44,8160,71.5C8320,99,8480,132,8640,159.5C8800,187,8960,209,9120,225.5C9280,242,9440,253,9600,242C9760,231,9920,198,10080,154C10240,110,10400,55,10560,66C10720,77,10880,154,11040,176C11200,198,11360,165,11440,148.5L11520,132L11520,330L11440,330C11360,330,11200,330,11040,330C10880,330,10720,330,10560,330C10400,330,10240,330,10080,330C9920,330,9760,330,9600,330C9440,330,9280,330,9120,330C8960,330,8800,330,8640,330C8480,330,8320,330,8160,330C8000,330,7840,330,7680,330C7520,330,7360,330,7200,330C7040,330,6880,330,6720,330C6560,330,6400,330,6240,330C6080,330,5920,330,5760,330C5600,330,5440,330,5280,330C5120,330,4960,330,4800,330C4640,330,4480,330,4320,330C4160,330,4000,330,3840,330C3680,330,3520,330,3360,330C3200,330,3040,330,2880,330C2720,330,2560,330,2400,330C2240,330,2080,330,1920,330C1760,330,1600,330,1440,330C1280,330,1120,330,960,330C800,330,640,330,480,330C320,330,160,330,80,330L0,330Z"/></svg>